<svg width="136" height="31" viewBox="0 0 136 31" fill="none" xmlns="http://www.w3.org/2000/svg">
<g clip-path="url(#clip0_10632_37911)">
<path fill-rule="evenodd" clip-rule="evenodd" d="M5.19007 0.939619C4.02132 1.46598 2.3907 3.15476 1.9607 4.28378C1.75653 4.82025 1.63248 8.53483 1.63248 14.1101C1.63248 24.3448 1.75746 25.0675 3.90532 27.2517C6.39347 29.7821 6.32757 29.7702 17.7189 29.7702C27.7396 29.7702 27.7765 29.7677 28.779 29.0593C29.3325 28.6684 30.1678 27.8519 30.6352 27.245L31.4853 26.1414V16.3132C31.4853 5.30924 31.4748 5.24919 29.1652 2.96174C26.8747 0.693288 26.7562 0.672148 15.8628 0.592795C8.17164 0.536727 5.92262 0.609953 5.19007 0.939619ZM10.0058 3.65601C11.217 4.46424 12.011 6.23267 11.7051 7.43981C11.5897 7.8951 11.0304 8.72816 10.4618 9.29128C9.60087 10.1439 9.20334 10.3131 8.08255 10.3042C6.46369 10.291 5.50994 9.81184 4.70933 8.60928C3.91398 7.41439 3.9511 6.03935 4.81266 4.77307C6.10483 2.87411 8.16917 2.43016 10.0058 3.65601ZM16.1722 3.23075C16.1722 3.37842 15.9782 3.65876 15.7416 3.85362C15.5046 4.04817 15.1353 4.62723 14.9209 5.13981L14.5308 6.07213L14.1558 5.0531C13.9498 4.49273 13.6775 3.79295 13.5514 3.49791C13.3518 3.0319 13.5084 2.96174 14.747 2.96174C15.531 2.96174 16.1722 3.08276 16.1722 3.23075ZM25.301 3.53314C29.7891 5.5525 30.3924 11.3548 26.4041 14.1446C25.236 14.9618 24.8412 15.0638 22.8475 15.0638C20.8834 15.0638 20.4463 14.9547 19.327 14.1867C17.9519 13.243 16.4803 10.7721 16.4835 9.41231C16.4933 4.90359 21.2692 1.71906 25.301 3.53314ZM80.5182 16.9021V26.2467H81.8961H83.2743L83.3656 24.2032C83.416 23.0791 83.5963 22.1222 83.7665 22.0772C83.9366 22.0319 84.9111 22.94 85.932 24.0957L87.7881 26.1965L89.7216 26.2216C90.7851 26.2355 91.6501 26.1432 91.6439 26.0169C91.6377 25.8908 90.3938 24.4774 88.8792 22.8765L86.1253 19.9659L88.8065 17.2851L91.4874 14.6042H89.4908H87.4942L85.3984 16.664L83.3024 18.7239V13.1407V7.55747H81.9103H80.5182V16.9021ZM104.648 16.9021V26.2467H106.04C107.051 26.2467 107.433 26.1249 107.433 25.8022C107.433 25.4367 107.666 25.4627 108.747 25.9486C114.63 28.5934 119.816 21.7559 116.021 16.3589C114.628 14.3782 110.593 13.6058 108.437 14.9073L107.433 15.5145V11.5358V7.55747H106.04H104.648V16.9021ZM118.878 16.8852V26.2467H120.43H121.981L121.899 16.9787L121.817 7.71066L120.348 7.61721L118.878 7.52377V16.8852ZM40.6113 17.6681V26.2467L44.401 26.2449C48.7959 26.2431 50.1227 25.9527 51.5975 24.6701C53.7382 22.8088 53.6955 19.7478 51.5013 17.7572C50.89 17.2027 50.5583 16.749 50.7641 16.749C51.4301 16.749 52.3644 14.8185 52.3656 13.44C52.3672 11.655 51.6664 10.4424 50.2073 9.70525C49.1641 9.17823 48.3848 9.08938 44.8 9.08938H40.6113V17.6681ZM14.7585 12.815C15.1919 13.6753 15.1869 13.728 14.6938 13.5301C13.827 13.1817 12.6753 12.83 11.7178 12.6207L10.821 12.4249L11.8771 11.7142C12.4578 11.3232 13.1387 10.6231 13.3901 10.1581L13.8471 9.31243L14.0689 10.5992C14.1908 11.307 14.5011 12.3042 14.7585 12.815ZM48.6917 12.4289C50.1849 14.2552 48.7879 15.8298 45.6739 15.8298H43.7049V13.6505V11.4712L45.9075 11.5947C47.7531 11.6979 48.2048 11.8334 48.6917 12.4289ZM6.11814 12.7874C6.99362 13.0968 7.01094 13.1343 6.4275 13.4471C6.0872 13.6294 5.4258 14.0426 4.95805 14.3656L4.10732 14.9523V13.3971C4.10732 12.0021 4.16332 11.8735 4.6487 12.1504C4.94661 12.3204 5.6077 12.607 6.11814 12.7874ZM56.3112 15.1226C55.5028 15.5685 54.8417 16.0216 54.8417 16.1303C54.8417 16.2391 55.2569 16.7219 55.7645 17.2033C56.6403 18.0345 56.7167 18.0525 57.2686 17.5578C58.158 16.7609 59.6658 16.4312 60.7346 16.8C61.5074 17.067 62.2663 17.8445 62.2663 18.37C62.2663 18.4411 61.2831 18.5897 60.0812 18.7003C57.4365 18.9438 56.093 19.4622 55.203 20.583C54.377 21.6228 54.2901 23.9296 55.0369 24.9854C56.1265 26.5262 59.0746 27.0053 61.1182 25.9735C62.0249 25.5154 62.2663 25.4832 62.2663 25.8203C62.2663 26.1214 62.6752 26.2467 63.6583 26.2467H65.0504L65.0498 21.8808C65.0495 16.8574 64.7046 15.7348 62.885 14.8347C61.1696 13.986 58.132 14.1192 56.3112 15.1226ZM71.1602 14.7412C70.6924 14.9829 70.3095 15.0509 70.3095 14.8926C70.3095 14.7338 69.6134 14.6042 68.7627 14.6042H67.216V20.4255V26.2467H68.7627H70.3095V22.4853C70.3095 19.5321 70.416 18.5732 70.8048 18.0232C71.4297 17.1399 72.5969 16.6907 73.6125 16.9432C74.8536 17.2517 75.2592 18.6731 75.2592 22.7136V26.2467H76.6513H78.0434V21.9476C78.0434 17.0391 77.7291 15.8849 76.1285 14.9186C74.9053 14.1799 72.4184 14.0911 71.1602 14.7412ZM94.2846 14.7372C93.7741 14.9654 93.078 15.3635 92.7378 15.6215C92.1275 16.0841 92.1315 16.1037 93.0265 17.0311C93.8966 17.9334 93.9644 17.9515 94.6898 17.4808C96.5609 16.2666 98.6841 16.4107 99.3202 17.795C99.6411 18.4907 99.6067 18.5075 97.4874 18.7028C94.8848 18.9423 93.5232 19.4647 92.6565 20.556C91.6699 21.7981 91.5153 23.0028 92.1717 24.3331C93.1975 26.4128 96.1676 27.1763 98.5504 25.9735C99.4567 25.5154 99.6984 25.4832 99.6984 25.8203C99.6984 26.1206 100.104 26.2467 101.067 26.2467H102.436L102.263 21.5745C102.069 16.3574 101.827 15.5605 100.206 14.7988C98.9037 14.1867 95.5922 14.152 94.2846 14.7372ZM126.861 14.9066C124.427 16.2146 123.226 19.0404 123.859 21.9647C124.704 25.8684 129.129 27.6935 133.054 25.7572C135.002 24.7954 135.588 23.9517 134.757 23.3059C133.415 22.2622 133.174 22.2332 132.329 23.0092C131.88 23.421 131.106 23.8462 130.609 23.9544C129.447 24.2072 127.526 23.3043 127.012 22.2638L126.633 21.4979L131.108 21.413L135.584 21.3285L135.577 19.881C135.568 17.9995 134.682 16.1083 133.378 15.1888C131.926 14.1643 128.516 14.0166 126.861 14.9066ZM13.7883 16.1359C16.9883 18.3074 17.6128 22.4559 15.1563 25.2265C12.5567 28.1589 8.34179 28.1592 5.74289 25.2278C3.07222 22.2151 3.95048 17.6736 7.55417 15.8613C9.38308 14.9416 12.2119 15.066 13.7883 16.1359ZM29.1083 17.7679L29.0105 18.4806L27.67 17.8985L26.3293 17.3164L27.67 16.4732L29.0105 15.6304L29.1083 16.3427C29.162 16.7345 29.162 17.3761 29.1083 17.7679ZM131.831 17.1837C131.99 17.2811 132.266 17.7744 132.443 18.2802L132.767 19.2H129.661H126.555L127.141 18.2042C128.026 16.6975 130.247 16.214 131.831 17.1837ZM19.8845 17.3678C20.3099 17.5051 21.0653 17.7064 21.5633 17.8155L22.4691 18.0134L21.5633 18.5973C21.0653 18.9184 20.3445 19.6298 19.9618 20.1777L19.2658 21.1743L19.2589 20.2637C19.2553 19.7628 18.9768 18.7527 18.6406 18.0183C18.0794 16.7934 18.0735 16.7015 18.57 16.9009C18.8676 17.0204 19.4591 17.2302 19.8845 17.3678ZM112.217 17.1843C113.452 17.6956 114.238 19.0214 114.238 20.594C114.238 21.4574 113.999 21.9497 113.186 22.754C111.265 24.6566 108.443 23.9238 107.74 21.3394C107.237 19.4892 108.357 17.3804 110.062 16.9692C111.07 16.7259 111.12 16.7308 112.217 17.1843ZM49.0768 19.2223C49.7058 19.712 49.892 20.1274 49.892 21.0383C49.892 22.8532 48.8776 23.4893 45.9833 23.4893H43.7049V21.0383V18.5872H45.9833C47.8199 18.5872 48.4197 18.7104 49.0768 19.2223ZM27.3338 20.6418C28.2888 21.2007 29.1652 22.7025 29.1652 23.7807C29.1652 25.5439 27.1463 27.4702 25.2982 27.4702C24.007 27.4702 22.4456 26.4468 21.8504 25.2106C21.1352 23.7252 21.4913 22.2378 22.8438 21.0615C24.1127 19.958 25.882 19.7925 27.3338 20.6418ZM62.1335 21.8808C61.8496 23.0782 60.5753 24.1021 59.3691 24.1021C57.9346 24.1021 57.1761 23.4731 57.4252 22.4905C57.6646 21.5451 58.7353 21.0962 60.8302 21.0625C62.316 21.0386 62.3309 21.0478 62.1335 21.8808ZM99.5188 21.8808C99.4137 22.3444 98.9859 23.0337 98.5676 23.4127C97.24 24.6168 94.7486 24.1665 94.7486 22.7225C94.7486 21.7098 96.0318 21.0658 98.0805 21.0505C99.7003 21.0383 99.7089 21.0432 99.5188 21.8808ZM19.5992 26.691C20.1598 27.2633 19.8638 27.4723 18.4924 27.4723C17.0638 27.4723 16.7736 27.2029 17.5309 26.5804C17.7678 26.3859 18.144 25.7909 18.3668 25.2584L18.7714 24.2902L19.0431 25.345C19.1922 25.9253 19.4424 26.5308 19.5992 26.691Z" fill="#6B7280"/>
</g>
<defs>
<clipPath id="clip0_10632_37911">
<rect width="134.666" height="30.5625" fill="white" transform="translate(0.94043 0.0513306)"/>
</clipPath>
</defs>
</svg>
