<svg width="91" height="19" viewBox="0 0 91 19" fill="none" xmlns="http://www.w3.org/2000/svg">
<g clip-path="url(#clip0_10632_37908)">
<path fill-rule="evenodd" clip-rule="evenodd" d="M79.9867 1.20697C79.1597 1.33951 77.8892 1.79846 77.1178 2.24363C75.6727 3.0774 74.2076 4.81954 73.6262 6.39539C72.6614 9.00961 72.9904 12.4768 74.3988 14.5393C75.71 16.4593 77.4322 17.5432 79.8975 17.9999C81.4393 18.2856 83.0062 18.0903 84.3918 17.4399C84.9053 17.1989 86.2116 16.3954 86.7514 15.9886C87.0233 15.7835 87.3833 16.0336 87.9634 16.8305C88.7527 17.915 89.048 18.0601 89.5205 17.5953L89.7721 17.3479L89.7706 9.86009C89.7699 5.74192 89.7429 2.27598 89.7108 2.15816C89.6342 1.87728 89.2385 1.67541 88.9188 1.75433C88.7764 1.7895 88.4012 2.12803 88.0656 2.5242C87.4253 3.27998 87.1059 3.44829 86.7461 3.21941C86.6237 3.1416 86.1682 2.84178 85.7336 2.55313C84.8919 1.99409 84.1972 1.64487 83.3681 1.36379C82.7849 1.16615 80.8128 1.07464 79.9867 1.20697ZM32.1884 1.88051C31.3606 2.05849 30.417 2.48762 29.5637 3.07428C29.2035 3.32201 28.9078 3.49223 28.9068 3.45252C28.9058 3.41271 28.6142 3.07418 28.259 2.69998C27.5528 1.9563 27.2383 1.84865 26.8594 2.22125C26.6581 2.41929 26.6545 2.55716 26.6545 10.127V17.8312L26.8823 17.9881C27.0647 18.1139 27.4276 18.145 28.7087 18.145C30.2372 18.145 30.3171 18.135 30.5255 17.9167C30.7405 17.6917 30.7438 17.6239 30.7738 12.9532L30.8043 8.21786L31.0753 7.71394C31.6961 6.56057 32.5953 6.00062 33.8269 6.00062C35.0791 6.00062 36.0043 6.56108 36.6184 7.69156C36.8468 8.11193 36.8502 8.17553 36.9008 12.926C36.9482 17.3658 36.9662 17.7487 37.1348 17.9148C37.2916 18.0691 37.5465 18.0991 38.9311 18.1265C40.4593 18.1565 40.5598 18.1466 40.8285 17.9388L41.1121 17.7193L41.0783 12.5654L41.0445 7.41159L40.7663 6.66478C39.8325 4.1577 38.1222 2.56553 35.7189 1.96587C34.5709 1.67945 33.2704 1.648 32.1884 1.88051ZM1.55091 2.22125C1.34956 2.41929 1.34598 2.55716 1.34598 10.075V17.7273L1.61597 17.9361C1.86332 18.1274 2.02213 18.145 3.51154 18.145C5.32925 18.145 5.4724 18.0952 5.59709 17.4199C5.6309 17.2367 5.64505 13.7922 5.62844 9.76538C5.59944 2.72961 5.59064 2.43562 5.40303 2.23183C5.21931 2.03218 5.10629 2.01969 3.48183 2.01969C1.89242 2.01969 1.73964 2.03561 1.55091 2.22125ZM12.4508 2.09678C12.3876 2.1375 10.8545 3.87158 9.04397 5.95023C6.28134 9.12198 5.75212 9.77909 5.75202 10.0374C5.75191 10.2966 6.28195 10.9482 9.11241 14.1695L12.473 17.9938H14.5134H16.5539L16.7017 17.7349C16.7883 17.5832 16.822 17.3744 16.7833 17.231C16.7468 17.0963 15.3795 15.492 13.7448 13.6661C11.4748 11.1305 10.7726 10.2841 10.7726 10.0836C10.7726 9.88534 11.4997 8.98522 13.7441 6.40547C16.855 2.82968 16.9126 2.74432 16.556 2.24373C16.4007 2.02573 16.3451 2.01969 14.4811 2.0212C13.4277 2.0221 12.514 2.05607 12.4508 2.09678ZM22.3342 2.14567C22.2471 2.215 21.5236 3.00888 20.7265 3.90988L19.2772 5.548V11.6411V17.734L19.5014 17.9395C19.7075 18.1284 19.8569 18.145 21.3504 18.145C22.9387 18.145 22.9808 18.1394 23.2266 17.8976L23.4782 17.6503V10.1005C23.4782 2.61521 23.4763 2.5485 23.2657 2.28525C23.0337 1.995 22.6045 1.9307 22.3342 2.14567ZM47.762 2.12219C44.9538 2.60231 43.0234 5.37939 43.5948 8.11707C43.8348 9.2666 44.2867 10.1068 45.0898 10.8959C46.398 12.1816 47.2269 12.3961 50.8949 12.3986C53.447 12.4004 53.4657 12.4019 53.687 12.6336C53.9925 12.9535 53.9799 13.4492 53.6583 13.7655L53.4068 14.0129H48.645H43.8833L43.671 14.2784C43.4769 14.521 43.4585 14.6785 43.4585 16.097C43.4585 17.6117 43.4648 17.6564 43.71 17.8976L43.9615 18.145L48.654 18.1433C52.3296 18.1419 53.4963 18.1102 54.0386 17.9972C57.263 17.3252 59.0905 13.8026 57.7007 10.9384C57.1444 9.79199 56.2247 8.9837 54.8832 8.46255C54.2997 8.23589 54.1155 8.22108 51.2624 8.17038L48.2562 8.11707L48.0091 7.83427C47.5769 7.33972 47.7355 6.58517 48.3296 6.30781C48.6138 6.17518 49.2686 6.1518 52.6986 6.1518C56.1844 6.1518 56.7641 6.13043 56.9608 5.99488C57.1809 5.8433 57.1887 5.78051 57.1887 4.13775V2.43743L56.9187 2.22861C56.6549 2.02452 56.552 2.01999 52.4358 2.03158C50.1188 2.03803 48.0156 2.07884 47.762 2.12219ZM59.4428 2.22125C59.2541 2.4069 59.2379 2.55716 59.2379 4.12051C59.2379 6.12166 59.2519 6.1518 60.1824 6.1518C60.5904 6.1518 60.8209 6.20642 60.9941 6.34419C61.2356 6.53648 61.2361 6.54031 61.2914 9.44328C61.3455 12.2853 61.353 12.3677 61.6285 13.1452C62.4508 15.4665 64.1507 17.0847 66.5641 17.8434C67.1728 18.0348 67.5854 18.0766 69.2921 18.1196C71.9236 18.1859 71.7384 18.3429 71.7384 16.0442C71.7384 14.5537 71.7166 14.3275 71.5591 14.191C71.4189 14.0696 71.0117 14.0247 69.6892 13.985C68.4642 13.9481 67.8646 13.8869 67.5125 13.7626C66.8453 13.5273 66.0832 12.8281 65.7839 12.1765C65.5509 11.6694 65.5379 11.5276 65.5073 9.15191L65.4753 6.65934L65.7332 6.40557L65.9912 6.1518H68.6599C72.0525 6.1518 71.764 6.34812 71.7196 4.06992C71.6883 2.45971 71.6792 2.39822 71.4453 2.21208C71.2136 2.02785 70.9593 2.01969 65.4256 2.01969C59.7844 2.01969 59.6429 2.02443 59.4428 2.22125ZM83.0835 5.7406C84.4438 6.45656 85.363 7.83941 85.4488 9.29966C85.6264 12.3162 82.8497 14.6228 80.1272 13.7202C78.9385 13.3262 78.1303 12.567 77.6645 11.4071C77.4767 10.9394 77.4351 10.6321 77.4306 9.67921C77.4236 8.17713 77.6554 7.45462 78.4128 6.61892C79.2651 5.67831 80.1296 5.33294 81.5237 5.37637C82.3425 5.40187 82.5173 5.44269 83.0835 5.7406Z" fill="#6B7280"/>
</g>
<defs>
<clipPath id="clip0_10632_37908">
<rect width="89.8438" height="17.9688" fill="white" transform="translate(0.5 0.348206)"/>
</clipPath>
</defs>
</svg>
