<svg width="151" height="27" viewBox="0 0 151 27" fill="none" xmlns="http://www.w3.org/2000/svg">
<g clip-path="url(#clip0_10632_37914)">
<path fill-rule="evenodd" clip-rule="evenodd" d="M19.8187 1.59431C18.5447 2.38483 18.2733 2.85529 17.2147 6.10906L16.2297 9.13752L14.5486 6.15658L12.8675 3.17592L9.42586 3.09792L5.98446 3.01993L5.69364 3.79675C5.53363 4.22416 5.15689 5.39121 4.85643 6.39054C3.31721 11.5079 1.71466 16.6654 1.48635 17.2356C1.34479 17.5887 1.22913 18.4543 1.22913 19.1594C1.22913 21.5569 2.88814 23.1626 5.36536 23.1626C6.34193 23.1626 6.68894 22.996 7.54791 22.1143C8.16425 21.4815 8.73681 20.512 8.99183 19.6684C9.22455 18.8996 9.63324 17.5347 9.90038 16.6352L10.3862 14.9996L12.0218 17.971L13.6574 20.9422L17.2663 20.8645C20.8478 20.787 20.8767 20.7812 21.0846 20.0877C21.1998 19.7033 21.6886 18.068 22.1706 16.4537C22.6525 14.8395 23.6131 11.7576 24.3049 9.60518C25.0019 7.43656 25.5472 5.22153 25.528 4.63731C25.4371 1.88838 22.1596 0.141578 19.8187 1.59431ZM22.9857 3.59521C24.1396 4.76645 23.4096 6.94961 21.8641 6.94961C20.7247 6.94961 20.2546 6.68713 19.8013 5.79766C19.4378 5.08401 19.4383 4.90064 19.8057 4.17944C20.0337 3.73219 20.3777 3.30198 20.5702 3.22316C21.3619 2.90001 22.4685 3.07025 22.9857 3.59521ZM130.943 4.85312C130.943 6.59852 130.329 7.50868 129.152 7.50868C128.483 7.50868 128.464 7.56458 128.464 9.46542V11.4221H129.565H130.667V14.6457C130.667 18.1192 130.95 19.2421 132.077 20.2584C133.232 21.2978 135.316 21.7489 136.932 21.3092C137.499 21.1549 137.552 20.9755 137.552 19.2163V17.2923H136.48C135.149 17.2923 135.073 17.1135 135.073 13.915V11.4221H136.313H137.552V9.46542V7.50868H136.313H135.073V5.8544C135.073 3.35733 135.037 3.31568 132.841 3.31568H130.943V4.85312ZM14.5866 9.09503L15.737 11.2424L15.2467 12.6602C14.9771 13.4398 14.5543 14.8009 14.3073 15.6851C14.0606 16.5692 13.7521 17.2923 13.6219 17.2923C13.4918 17.2923 12.8716 16.3478 12.244 15.1936L11.1025 13.0948L12.1275 9.87716C12.6912 8.10716 13.2162 6.72403 13.2944 6.80342C13.3723 6.88253 13.954 7.91372 14.5866 9.09503ZM36.8325 7.30546C36.3449 7.49415 35.6941 7.86732 35.3868 8.13484C34.8519 8.60054 34.828 8.59746 34.828 8.06495C34.828 7.55899 34.641 7.50868 32.7625 7.50868H30.697V14.3572V21.2058H32.7625H34.828V17.334C34.828 12.1369 35.2163 11.1427 37.2457 11.1427C38.7946 11.1427 38.959 11.6748 38.959 16.6855V21.2058H41.1828H43.4067L43.3172 15.6403L43.2277 10.0748L42.3764 9.00139C41.9082 8.41101 41.1726 7.75271 40.7416 7.53831C39.6601 7.00076 37.8934 6.89538 36.8325 7.30546ZM50.8012 7.33314C47.3468 8.49683 45.7095 10.7152 45.7201 14.2174C45.7253 15.9855 45.8486 16.541 46.5069 17.7619C47.9192 20.3817 49.8646 21.5164 52.9435 21.5164C54.7754 21.5164 55.152 21.4185 56.4961 20.5925C60.5782 18.0837 61.2498 12.4966 57.8927 8.97567C56.2726 7.27583 53.1305 6.5482 50.8012 7.33314ZM91.5604 7.14025C91.3332 7.22076 90.6827 7.52322 90.1145 7.81253C89.2506 8.25224 89.0818 8.27041 89.0818 7.92351C89.0818 7.59366 88.6588 7.50868 87.0163 7.50868H84.9508V16.873V26.2374H87.154H89.3572V23.4385V20.6392L90.3547 21.0624C92.6452 22.0338 95.6727 21.278 97.375 19.3101C98.6708 17.8119 99.0636 16.6005 99.053 14.1306C99.0385 10.528 97.7084 8.38725 94.8486 7.36304C93.7011 6.95213 92.3497 6.86044 91.5604 7.14025ZM106.018 7.27639C103.449 8.15524 101.576 9.88051 100.973 11.9272C99.9517 15.3871 101.607 19.2834 104.801 20.9377C106.362 21.7456 109.318 21.7414 110.97 20.9291C115.402 18.7517 116.421 12.9962 113.065 9.11543C111.546 7.35941 108.273 6.50515 106.018 7.27639ZM122.75 7.5056C122.257 7.81029 121.855 7.93553 121.855 7.78402C121.855 7.62608 120.915 7.50868 119.651 7.50868H117.448V14.3572V21.2058H119.651H121.855V16.2707C121.855 11.5071 121.872 11.3517 122.358 11.7981C123.156 12.531 124.945 12.4021 125.783 11.5515C126.729 10.5908 126.921 9.64208 126.394 8.515C125.667 6.96219 124.258 6.57197 122.75 7.5056ZM142.928 7.3963C140.619 8.2542 139.203 10.5643 139.767 12.5515C140.267 14.3078 141.583 15.3772 144.049 16.0294C145.836 16.5016 146.469 16.9712 146.217 17.6368C145.79 18.7666 143.465 18.2763 143.133 16.9863C143.017 16.5351 142.829 16.4842 141.858 16.6402C140.211 16.9049 139.491 17.1238 139.486 17.3622C139.459 18.4409 139.593 18.8004 140.347 19.6718C141.495 21.0001 142.738 21.4853 144.988 21.4853C148.528 21.4853 150.497 19.8213 150.497 16.8272C150.497 14.622 149.116 13.1946 146.365 12.5543C144.409 12.0989 144.024 11.8895 144.024 11.2824C144.024 9.98924 146.41 10.0723 146.593 11.3718C146.676 11.9642 146.773 11.9955 147.969 11.8174C150.255 11.4766 150.501 11.3039 150.213 10.247C149.725 8.4658 147.154 6.90936 144.798 6.96918C144.372 6.98009 143.531 7.1724 142.928 7.3963ZM60.7155 7.86788C60.7155 8.19829 61.5633 11.0232 63.837 18.2707L64.7138 21.066L66.951 21.1468C69.1786 21.2271 69.1889 21.2243 69.375 20.4715C69.7437 18.9794 71.8059 13.0817 71.9186 13.1961C71.9819 13.2604 72.6203 15.0574 73.3371 17.1894L74.6406 21.066L76.7284 21.1471C79.1801 21.2422 78.7378 21.8739 80.6989 15.4754C81.4058 13.1693 82.218 10.5383 82.5036 9.62894C82.7891 8.71961 83.023 7.86508 83.023 7.73035C83.023 7.59533 82.0649 7.52182 80.8936 7.56682L78.7642 7.64844L77.8144 11.0728C77.2919 12.9559 76.7929 14.497 76.7056 14.497C76.6183 14.497 76.1223 13.2075 75.6034 11.6318C74.1168 7.11649 74.4702 7.50868 71.8861 7.50868H69.6501L68.448 11.2061C67.1272 15.268 67.1764 15.2501 66.3228 11.9812C66.1021 11.1356 65.7328 9.78352 65.5021 8.97623L65.0829 7.50868H62.8992C61.3047 7.50868 60.7155 7.60539 60.7155 7.86788ZM54.2004 11.4529C55.1147 11.8758 55.5747 12.8511 55.5747 14.3668C55.5747 16.6648 53.7794 18.0812 51.8794 17.2826C50.2014 16.577 49.5426 14.5281 50.4026 12.6884C51.0614 11.2793 52.6838 10.7515 54.2004 11.4529ZM94.0602 11.9597C95.5788 13.501 94.9795 16.7229 93.0746 17.2568C90.8292 17.8861 89.3572 16.6243 89.3572 14.0701C89.3572 12.296 90.4423 11.1427 92.1112 11.1427C93.0084 11.1427 93.4287 11.319 94.0602 11.9597ZM109.292 11.4585C110.524 12.0282 111.09 14.6533 110.302 16.1468C109.896 16.9169 108.231 17.6697 107.402 17.4584C106.212 17.1557 105.37 16.2111 105.188 14.9784C104.774 12.1668 106.894 10.3493 109.292 11.4585ZM6.33642 17.9786C7.39644 19.0543 7.20586 20.3865 5.89303 21.0756C4.62619 21.7405 2.88153 20.639 2.88153 19.1742C2.88153 18.4247 4.12469 17.2923 4.94703 17.2923C5.33947 17.2923 5.96463 17.6012 6.33642 17.9786Z" fill="#6B7280"/>
</g>
<defs>
<clipPath id="clip0_10632_37914">
<rect width="149.618" height="26.0625" fill="white" transform="translate(0.878479 0.301331)"/>
</clipPath>
</defs>
</svg>
